# xmcd
#
# Track frame offsets: 
#        150
#        24548
#        39400
#        53328
#        71185
#        89703
#        109941
#        125753
#        141997
#        153230
#
# Disc length: 2388 seconds
#
# Revision: 2
# Processed by: cddbd v1.5.2PL0 Copyright (c) Steve Scherf et al.
# Submitted via: ExactAudioCopy v0.99pb5
#
DISCID=8c09520a
DTITLE=Roy Ayers Ubiquity - A Tear to a smile
DYEAR=1975
DGENRE=Jazz
TTITLE0=2000 Black
TTITLE1=Magic Lady
TTITLE2=Show us a feeling
TTITLE3=Ebony Blaze
TTITLE4=Time and space
TTITLE5=No question
TTITLE6=The way of the world
TTITLE7=The old one two (move to groove)
TTITLE8=Miles (Love's silent dawn)
TTITLE9=A tear to a smile
EXTD=YEAR: 1975
EXTT0=
EXTT1=
EXTT2=
EXTT3=
EXTT4=
EXTT5=
EXTT6=
EXTT7=
EXTT8=
EXTT9=
PLAYORDER=
